<svg xmlns="http://www.w3.org/2000/svg" xmlns:xlink="http://www.w3.org/1999/xlink" width="75" zoomAndPan="magnify" viewBox="0 0 56.25 56.249997" height="75" preserveAspectRatio="xMidYMid meet" version="1.0"><defs><clipPath id="76284a764f"><path d="M 1 0 L 52 0 L 52 55.511719 L 1 55.511719 Z M 1 0 " clip-rule="nonzero"/></clipPath></defs><path stroke-linecap="round" transform="matrix(1.164431, 0, 0, 1.170911, -1.156853, -0.28839)" fill="none" stroke-linejoin="round" d="M 42.396494 25.770622 C 42.396494 29.477003 39.38738 35.81555 30.591506 35.81555 C 21.792278 35.81555 18.400734 29.166748 18.400734 25.770622 C 18.400734 22.377831 24.663852 15.729029 30.591506 15.729029 C 36.51916 15.729029 42.396494 22.067576 42.396494 25.770622 Z M 42.396494 25.770622 " stroke="#000000" stroke-width="1" stroke-opacity="1" stroke-miterlimit="4"/><path stroke-linecap="round" transform="matrix(1.164431, 0, 0, 1.170911, -1.156853, -0.28839)" fill="none" stroke-linejoin="round" d="M 40.688981 31.014935 C 38.81709 28.039154 34.600304 25.770622 30.547896 25.770622 C 26.495487 25.770622 22.19148 27.852334 20.21895 30.828114 " stroke="#000000" stroke-width="1" stroke-opacity="1" stroke-miterlimit="4"/><g clip-path="url(#76284a764f)"><path stroke-linecap="round" transform="matrix(1.164431, 0, 0, 1.170911, -1.156853, -0.28839)" fill="none" stroke-linejoin="round" d="M 4.509158 47.001416 L 10.805822 32.035774 C 7.76987 26.037508 1.976402 12.272854 3.103562 5.223723 C 6.88089 5.146993 15.619735 9.223679 17.176289 10.48138 C 19.474219 9.146949 26.659865 7.665731 29.249649 7.962642 C 30.614988 6.361325 35.053181 2.654943 37.102868 1.000249 C 38.287057 2.381385 40.762783 6.74831 41.175404 13.146906 C 43.104324 15.075158 47.324465 23.075071 43.473335 33.073294 C 40.390418 41.073207 41.202241 45.443468 41.990583 46.631112 " stroke="#000000" stroke-width="1" stroke-opacity="1" stroke-miterlimit="4"/></g><path stroke-linecap="round" transform="matrix(1.164431, 0, 0, 1.170911, -1.156853, -0.28839)" fill="none" stroke-linejoin="round" d="M 28.974568 7.945962 C 30.326489 7.945962 32.01052 8.072732 33.714679 8.703251 " stroke="#000000" stroke-width="1" stroke-opacity="1" stroke-miterlimit="4"/><path stroke-linecap="round" transform="matrix(1.164431, 0, 0, 1.170911, -1.156853, -0.28839)" fill="none" stroke-linejoin="round" d="M 28.414343 13.807449 L 30.470739 14.55473 L 32.38624 13.807449 " stroke="#000000" stroke-width="1" stroke-opacity="1" stroke-miterlimit="4"/><path stroke-linecap="round" transform="matrix(1.164431, 0, 0, 1.170911, -1.156853, -0.28839)" fill="none" stroke-linejoin="round" d="M 19.326615 14.407943 C 19.89355 14.037638 21.356174 13.280349 22.657776 13.223636 " stroke="#000000" stroke-width="1" stroke-opacity="1" stroke-miterlimit="4"/><path stroke-linecap="round" transform="matrix(1.164431, 0, 0, 1.170911, -1.156853, -0.28839)" fill="none" stroke-linejoin="round" d="M 34.22123 11.418818 C 34.895513 11.478867 36.512451 11.789122 37.572518 12.549748 " stroke="#000000" stroke-width="1" stroke-opacity="1" stroke-miterlimit="4"/><path stroke-linecap="round" transform="matrix(1.164431, 0, 0, 1.170911, -1.156853, -0.28839)" fill="none" stroke-linejoin="round" d="M 9.695435 20.072602 C 11.510297 15.408766 13.955832 12.296206 17.397696 10.334593 " stroke="#000000" stroke-width="1" stroke-opacity="1" stroke-miterlimit="4"/><path stroke-linecap="round" transform="matrix(1.164431, 0, 0, 1.170911, -1.156853, -0.28839)" fill="none" stroke-linejoin="round" d="M 3.02976 5.223723 C 5.99191 6.037725 11.510297 10.6682 12.993049 14.147729 " stroke="#000000" stroke-width="1" stroke-opacity="1" stroke-miterlimit="4"/></svg>